# xmcd CD database file
#
# Track frame offsets:
#	150
#	17778
#	30826
#	42955
#	56053
#	65845
#	79408
#	89306
#	100239
#	110359
#	118466
#	128040
#	140862
#	152048
#	162312
#	174105
#	185646
#	198590
#	210819
#	222702
#
# Disc length: 3126 seconds
#
# Revision: 6
# Processed by: cddbd v1.5.2PL0 Copyright (c) Steve Scherf et al.
# Submitted via: Feurio! 1.68 - http://www.feurio.com
#
DISCID=250c3414
DTITLE=Various Artist - Rhythm and Blues - Original Masters - CD 6
DYEAR=2005
DGENRE=R&B
TTITLE0=Tommy Moore - Your Car Machine
TTITLE1=Louis Payne - That's Allright With Me
TTITLE2=Mr. Sad Head - Sad Head Blues
TTITLE3=T.J. Fowler - Tell Me Waht's The Matter
TTITLE4=Bob Williams - Talk To Me
TTITLE5=Leon Tarver - Somebody Help Me
TTITLE6=Herman Manzy - I'm Your Rockin Man
TTITLE7=King Perry - Erverything Gonna Be Alright Tonight
TTITLE8=Woo Woo Moore - Something's Wrong
TTITLE9=Jimmie Nelson - Great Big Hunk Of Man
TTITLE10=Jesse Stone - Runaway
TTITLE11=Jonny Otis - Court Room Blues
TTITLE12=Rudy Greene - Wild Life
TTITLE13=Eddie Riff - My Baby's Gone Away
TTITLE14=Jimmy Anthony - Before Day In The Morning
TTITLE15=Freddie Hall - She's An Upsetter
TTITLE16=Lee Christie - My Heart'S Goes Diddley Burn
TTITLE17=Mr. Rain - Who Dat
TTITLE18=Oliver Jones - What I Say
TTITLE19=Joan Shaw - You Drive Me Crazy
EXTD=YEAR: 2005
EXTT0=
EXTT1=
EXTT2=
EXTT3=
EXTT4=
EXTT5=
EXTT6=
EXTT7=
EXTT8=
EXTT9=
EXTT10=
EXTT11=
EXTT12=
EXTT13=
EXTT14=
EXTT15=
EXTT16=
EXTT17=
EXTT18=
EXTT19=
PLAYORDER=
